<svg width="60" height="54" viewBox="0 0 60 54" fill="none" xmlns="http://www.w3.org/2000/svg">
<path d="M5.625 0.75H20.625C23.7305 0.75 26.25 3.26953 26.25 6.375V21.375C26.25 24.4805 23.7305 27 20.625 27H11.25V34.5C11.25 38.6367 14.6133 42 18.75 42H19.6875C21.2461 42 22.5 43.2539 22.5 44.8125V50.4375C22.5 51.9961 21.2461 53.25 19.6875 53.25H18.75C8.39062 53.25 0 44.8594 0 34.5V6.375C0 3.26953 2.51953 0.75 5.625 0.75ZM39.375 0.75H54.375C57.4805 0.75 60 3.26953 60 6.375V21.375C60 24.4805 57.4805 27 54.375 27H45V34.5C45 38.6367 48.3633 42 52.5 42H53.4375C54.9961 42 56.25 43.2539 56.25 44.8125V50.4375C56.25 51.9961 54.9961 53.25 53.4375 53.25H52.5C42.1406 53.25 33.75 44.8594 33.75 34.5V6.375C33.75 3.26953 36.2695 0.75 39.375 0.75Z" fill="#72BF44" fill-opacity="0.5"/>
</svg>
